<svg width="179" height="32" viewBox="0 0 179 32" fill="none" xmlns="http://www.w3.org/2000/svg">
<path d="M0.931818 25V7.54545H5.54545V10.625H5.75C6.11364 9.60227 6.7197 8.79545 7.56818 8.20454C8.41667 7.61364 9.43182 7.31818 10.6136 7.31818C11.8106 7.31818 12.8295 7.61742 13.6705 8.21591C14.5114 8.80682 15.072 9.60985 15.3523 10.625H15.5341C15.8902 9.625 16.5341 8.82576 17.4659 8.22727C18.4053 7.62121 19.5152 7.31818 20.7955 7.31818C22.4242 7.31818 23.7462 7.83712 24.7614 8.875C25.7841 9.9053 26.2955 11.3674 26.2955 13.2614V25H21.4659V14.2159C21.4659 13.2462 21.2083 12.5189 20.6932 12.0341C20.178 11.5492 19.5341 11.3068 18.7614 11.3068C17.8826 11.3068 17.197 11.5871 16.7045 12.1477C16.2121 12.7008 15.9659 13.4318 15.9659 14.3409V25H11.2727V14.1136C11.2727 13.2576 11.0265 12.5758 10.5341 12.0682C10.0492 11.5606 9.40909 11.3068 8.61364 11.3068C8.07576 11.3068 7.59091 11.4432 7.15909 11.7159C6.73485 11.9811 6.39773 12.3561 6.14773 12.8409C5.89773 13.3182 5.77273 13.8788 5.77273 14.5227V25H0.931818ZM38.0057 25.3409C36.2405 25.3409 34.714 24.9659 33.4261 24.2159C32.1458 23.4583 31.1572 22.4053 30.4602 21.0568C29.7633 19.7008 29.4148 18.1288 29.4148 16.3409C29.4148 14.5379 29.7633 12.9621 30.4602 11.6136C31.1572 10.2576 32.1458 9.20454 33.4261 8.45454C34.714 7.69697 36.2405 7.31818 38.0057 7.31818C39.7708 7.31818 41.2936 7.69697 42.5739 8.45454C43.8617 9.20454 44.8542 10.2576 45.5511 11.6136C46.2481 12.9621 46.5966 14.5379 46.5966 16.3409C46.5966 18.1288 46.2481 19.7008 45.5511 21.0568C44.8542 22.4053 43.8617 23.4583 42.5739 24.2159C41.2936 24.9659 39.7708 25.3409 38.0057 25.3409ZM38.0284 21.5909C38.8314 21.5909 39.5019 21.3636 40.0398 20.9091C40.5777 20.447 40.983 19.8182 41.2557 19.0227C41.536 18.2273 41.6761 17.322 41.6761 16.3068C41.6761 15.2917 41.536 14.3864 41.2557 13.5909C40.983 12.7955 40.5777 12.1667 40.0398 11.7045C39.5019 11.2424 38.8314 11.0114 38.0284 11.0114C37.2178 11.0114 36.536 11.2424 35.983 11.7045C35.4375 12.1667 35.0246 12.7955 34.7443 13.5909C34.4716 14.3864 34.3352 15.2917 34.3352 16.3068C34.3352 17.322 34.4716 18.2273 34.7443 19.0227C35.0246 19.8182 35.4375 20.447 35.983 20.9091C36.536 21.3636 37.2178 21.5909 38.0284 21.5909ZM59.0284 7.54545V11.1818H48.517V7.54545H59.0284ZM50.9034 3.36364H55.7443V19.6364C55.7443 20.0833 55.8125 20.4318 55.9489 20.6818C56.0852 20.9242 56.2746 21.0947 56.517 21.1932C56.767 21.2917 57.0549 21.3409 57.3807 21.3409C57.608 21.3409 57.8352 21.322 58.0625 21.2841C58.2898 21.2386 58.464 21.2045 58.5852 21.1818L59.3466 24.7841C59.1042 24.8598 58.7633 24.947 58.3239 25.0455C57.8845 25.1515 57.3504 25.2159 56.7216 25.2386C55.5549 25.2841 54.5322 25.1288 53.6534 24.7727C52.7822 24.4167 52.1042 23.8636 51.6193 23.1136C51.1345 22.3636 50.8958 21.4167 50.9034 20.2727V3.36364ZM67.3977 14.9091V25H62.5568V1.72727H67.2614V10.625H67.4659C67.8598 9.5947 68.4962 8.78788 69.375 8.20454C70.2538 7.61364 71.3561 7.31818 72.6818 7.31818C73.8939 7.31818 74.9508 7.58333 75.8523 8.11364C76.7614 8.63636 77.4659 9.39015 77.9659 10.375C78.4735 11.3523 78.7235 12.5227 78.7159 13.8864V25H73.875V14.75C73.8826 13.6742 73.6098 12.8371 73.0568 12.2386C72.5114 11.6402 71.7462 11.3409 70.7614 11.3409C70.1023 11.3409 69.5189 11.4811 69.0114 11.7614C68.5114 12.0417 68.1174 12.4508 67.8295 12.9886C67.5492 13.5189 67.4053 14.1591 67.3977 14.9091ZM90.4801 25.3409C88.6847 25.3409 87.1392 24.9773 85.8438 24.25C84.5559 23.5152 83.5634 22.4773 82.8665 21.1364C82.1695 19.7879 81.821 18.1932 81.821 16.3523C81.821 14.5568 82.1695 12.9811 82.8665 11.625C83.5634 10.2689 84.5445 9.21212 85.8097 8.45454C87.0824 7.69697 88.5748 7.31818 90.2869 7.31818C91.4384 7.31818 92.5104 7.50379 93.5028 7.875C94.5028 8.23864 95.3741 8.78788 96.1165 9.52273C96.8665 10.2576 97.4498 11.1818 97.8665 12.2955C98.2831 13.4015 98.4915 14.697 98.4915 16.1818V17.5114H83.7528V14.5114H93.9347C93.9347 13.8144 93.7831 13.197 93.4801 12.6591C93.1771 12.1212 92.7566 11.7008 92.2188 11.3977C91.6884 11.0871 91.071 10.9318 90.3665 10.9318C89.6316 10.9318 88.9801 11.1023 88.4119 11.4432C87.8513 11.7765 87.4119 12.2273 87.0938 12.7955C86.7756 13.3561 86.6127 13.9811 86.6051 14.6705V17.5227C86.6051 18.3864 86.7642 19.1326 87.0824 19.7614C87.4081 20.3902 87.8665 20.875 88.4574 21.2159C89.0483 21.5568 89.7491 21.7273 90.5597 21.7273C91.0975 21.7273 91.59 21.6515 92.0369 21.5C92.4839 21.3485 92.8665 21.1212 93.1847 20.8182C93.5028 20.5152 93.7453 20.1439 93.9119 19.7045L98.3892 20C98.1619 21.0758 97.696 22.0152 96.9915 22.8182C96.2945 23.6136 95.393 24.2348 94.2869 24.6818C93.1884 25.1212 91.9195 25.3409 90.4801 25.3409ZM101.651 25V7.54545H106.344V10.5909H106.526C106.844 9.50758 107.378 8.68939 108.128 8.13636C108.878 7.57576 109.741 7.29545 110.719 7.29545C110.961 7.29545 111.223 7.31061 111.503 7.34091C111.783 7.37121 112.029 7.41288 112.241 7.46591V11.7614C112.014 11.6932 111.7 11.6326 111.298 11.5795C110.897 11.5265 110.529 11.5 110.196 11.5C109.484 11.5 108.848 11.6553 108.287 11.9659C107.734 12.2689 107.295 12.6932 106.969 13.2386C106.651 13.7841 106.491 14.4129 106.491 15.125V25H101.651ZM129.267 12.5227L124.835 12.7955C124.759 12.4167 124.597 12.0758 124.347 11.7727C124.097 11.4621 123.767 11.2159 123.358 11.0341C122.956 10.8447 122.475 10.75 121.915 10.75C121.165 10.75 120.532 10.9091 120.017 11.2273C119.502 11.5379 119.244 11.9545 119.244 12.4773C119.244 12.8939 119.411 13.2462 119.744 13.5341C120.078 13.822 120.65 14.053 121.46 14.2273L124.619 14.8636C126.316 15.2121 127.581 15.7727 128.415 16.5455C129.248 17.3182 129.665 18.3333 129.665 19.5909C129.665 20.7348 129.328 21.7386 128.653 22.6023C127.987 23.4659 127.07 24.1402 125.903 24.625C124.744 25.1023 123.407 25.3409 121.892 25.3409C119.581 25.3409 117.741 24.8598 116.369 23.8977C115.006 22.928 114.206 21.6098 113.972 19.9432L118.733 19.6932C118.877 20.3977 119.225 20.9356 119.778 21.3068C120.331 21.6705 121.04 21.8523 121.903 21.8523C122.752 21.8523 123.434 21.6894 123.949 21.3636C124.472 21.0303 124.737 20.6023 124.744 20.0795C124.737 19.6402 124.551 19.2803 124.188 19C123.824 18.7121 123.263 18.4924 122.506 18.3409L119.483 17.7386C117.778 17.3977 116.509 16.8068 115.676 15.9659C114.85 15.125 114.438 14.053 114.438 12.75C114.438 11.6288 114.741 10.6629 115.347 9.85227C115.96 9.04167 116.82 8.41667 117.926 7.97727C119.04 7.53788 120.343 7.31818 121.835 7.31818C124.04 7.31818 125.775 7.78409 127.04 8.71591C128.313 9.64773 129.055 10.9167 129.267 12.5227ZM137.554 14.9091V25H132.713V1.72727H137.418V10.625H137.622C138.016 9.5947 138.652 8.78788 139.531 8.20454C140.41 7.61364 141.512 7.31818 142.838 7.31818C144.05 7.31818 145.107 7.58333 146.009 8.11364C146.918 8.63636 147.622 9.39015 148.122 10.375C148.63 11.3523 148.88 12.5227 148.872 13.8864V25H144.031V14.75C144.039 13.6742 143.766 12.8371 143.213 12.2386C142.668 11.6402 141.902 11.3409 140.918 11.3409C140.259 11.3409 139.675 11.4811 139.168 11.7614C138.668 12.0417 138.274 12.4508 137.986 12.9886C137.705 13.5189 137.562 14.1591 137.554 14.9091ZM152.682 25V7.54545H157.523V25H152.682ZM155.114 5.29545C154.394 5.29545 153.777 5.05682 153.261 4.57954C152.754 4.0947 152.5 3.51515 152.5 2.84091C152.5 2.17424 152.754 1.60227 153.261 1.125C153.777 0.640151 154.394 0.397726 155.114 0.397726C155.833 0.397726 156.447 0.640151 156.955 1.125C157.47 1.60227 157.727 2.17424 157.727 2.84091C157.727 3.51515 157.47 4.0947 156.955 4.57954C156.447 5.05682 155.833 5.29545 155.114 5.29545ZM161.401 31.5455V7.54545H166.173V10.4773H166.389C166.601 10.0076 166.908 9.5303 167.31 9.04545C167.719 8.55303 168.249 8.14394 168.901 7.81818C169.56 7.48485 170.378 7.31818 171.355 7.31818C172.628 7.31818 173.802 7.65152 174.878 8.31818C175.954 8.97727 176.813 9.97348 177.457 11.3068C178.101 12.6326 178.423 14.2955 178.423 16.2955C178.423 18.2424 178.109 19.8864 177.48 21.2273C176.859 22.5606 176.01 23.572 174.935 24.2614C173.866 24.9432 172.67 25.2841 171.344 25.2841C170.404 25.2841 169.605 25.1288 168.946 24.8182C168.295 24.5076 167.76 24.1174 167.344 23.6477C166.927 23.1705 166.609 22.6894 166.389 22.2045H166.241V31.5455H161.401ZM166.139 16.2727C166.139 17.3106 166.283 18.2159 166.571 18.9886C166.859 19.7614 167.276 20.3636 167.821 20.7955C168.366 21.2197 169.029 21.4318 169.81 21.4318C170.598 21.4318 171.264 21.2159 171.81 20.7841C172.355 20.3447 172.768 19.7386 173.048 18.9659C173.336 18.1856 173.48 17.2879 173.48 16.2727C173.48 15.2652 173.34 14.3788 173.06 13.6136C172.779 12.8485 172.366 12.25 171.821 11.8182C171.276 11.3864 170.605 11.1705 169.81 11.1705C169.022 11.1705 168.355 11.3788 167.81 11.7955C167.272 12.2121 166.859 12.803 166.571 13.5682C166.283 14.3333 166.139 15.2348 166.139 16.2727Z" fill="white"/>
</svg>
