<svg width="103" height="32" viewBox="0 0 103 32" fill="none" xmlns="http://www.w3.org/2000/svg">
<path d="M0.931818 25V7.54545H5.54545V10.625H5.75C6.11364 9.60227 6.7197 8.79545 7.56818 8.20454C8.41667 7.61364 9.43182 7.31818 10.6136 7.31818C11.8106 7.31818 12.8295 7.61742 13.6705 8.21591C14.5114 8.80682 15.072 9.60985 15.3523 10.625H15.5341C15.8902 9.625 16.5341 8.82576 17.4659 8.22727C18.4053 7.62121 19.5152 7.31818 20.7955 7.31818C22.4242 7.31818 23.7462 7.83712 24.7614 8.875C25.7841 9.9053 26.2955 11.3674 26.2955 13.2614V25H21.4659V14.2159C21.4659 13.2462 21.2083 12.5189 20.6932 12.0341C20.178 11.5492 19.5341 11.3068 18.7614 11.3068C17.8826 11.3068 17.197 11.5871 16.7045 12.1477C16.2121 12.7008 15.9659 13.4318 15.9659 14.3409V25H11.2727V14.1136C11.2727 13.2576 11.0265 12.5758 10.5341 12.0682C10.0492 11.5606 9.40909 11.3068 8.61364 11.3068C8.07576 11.3068 7.59091 11.4432 7.15909 11.7159C6.73485 11.9811 6.39773 12.3561 6.14773 12.8409C5.89773 13.3182 5.77273 13.8788 5.77273 14.5227V25H0.931818ZM44.642 12.5227L40.2102 12.7955C40.1345 12.4167 39.9716 12.0758 39.7216 11.7727C39.4716 11.4621 39.142 11.2159 38.733 11.0341C38.3314 10.8447 37.8504 10.75 37.2898 10.75C36.5398 10.75 35.9072 10.9091 35.392 11.2273C34.8769 11.5379 34.6193 11.9545 34.6193 12.4773C34.6193 12.8939 34.786 13.2462 35.1193 13.5341C35.4527 13.822 36.0246 14.053 36.8352 14.2273L39.9943 14.8636C41.6913 15.2121 42.9564 15.7727 43.7898 16.5455C44.6231 17.3182 45.0398 18.3333 45.0398 19.5909C45.0398 20.7348 44.7027 21.7386 44.0284 22.6023C43.3617 23.4659 42.4451 24.1402 41.2784 24.625C40.1193 25.1023 38.7822 25.3409 37.267 25.3409C34.9564 25.3409 33.1155 24.8598 31.7443 23.8977C30.3807 22.928 29.5814 21.6098 29.3466 19.9432L34.108 19.6932C34.2519 20.3977 34.6004 20.9356 35.1534 21.3068C35.7064 21.6705 36.4148 21.8523 37.2784 21.8523C38.1269 21.8523 38.8087 21.6894 39.3239 21.3636C39.8466 21.0303 40.1117 20.6023 40.1193 20.0795C40.1117 19.6402 39.9261 19.2803 39.5625 19C39.1989 18.7121 38.6383 18.4924 37.8807 18.3409L34.858 17.7386C33.1534 17.3977 31.8845 16.8068 31.0511 15.9659C30.2254 15.125 29.8125 14.053 29.8125 12.75C29.8125 11.6288 30.1155 10.6629 30.7216 9.85227C31.3352 9.04167 32.1951 8.41667 33.3011 7.97727C34.4148 7.53788 35.7178 7.31818 37.2102 7.31818C39.4148 7.31818 41.1496 7.78409 42.4148 8.71591C43.6875 9.64773 44.4299 10.9167 44.642 12.5227ZM52.929 14.9091V25H48.0881V1.72727H52.7926V10.625H52.9972C53.3911 9.5947 54.0275 8.78788 54.9062 8.20454C55.785 7.61364 56.8873 7.31818 58.2131 7.31818C59.4252 7.31818 60.482 7.58333 61.3835 8.11364C62.2926 8.63636 62.9972 9.39015 63.4972 10.375C64.0047 11.3523 64.2547 12.5227 64.2472 13.8864V25H59.4062V14.75C59.4138 13.6742 59.1411 12.8371 58.5881 12.2386C58.0426 11.6402 57.2775 11.3409 56.2926 11.3409C55.6335 11.3409 55.0502 11.4811 54.5426 11.7614C54.0426 12.0417 53.6487 12.4508 53.3608 12.9886C53.0805 13.5189 52.9366 14.1591 52.929 14.9091ZM68.0568 25V7.54545H72.8977V25H68.0568ZM70.4886 5.29545C69.7689 5.29545 69.1515 5.05682 68.6364 4.57954C68.1288 4.0947 67.875 3.51515 67.875 2.84091C67.875 2.17424 68.1288 1.60227 68.6364 1.125C69.1515 0.640151 69.7689 0.397726 70.4886 0.397726C71.2083 0.397726 71.822 0.640151 72.3295 1.125C72.8447 1.60227 73.1023 2.17424 73.1023 2.84091C73.1023 3.51515 72.8447 4.0947 72.3295 4.57954C71.822 5.05682 71.2083 5.29545 70.4886 5.29545ZM76.7756 31.5455V7.54545H81.5483V10.4773H81.7642C81.9763 10.0076 82.2831 9.5303 82.6847 9.04545C83.0938 8.55303 83.6241 8.14394 84.2756 7.81818C84.9347 7.48485 85.7528 7.31818 86.7301 7.31818C88.0028 7.31818 89.1771 7.65152 90.2528 8.31818C91.3286 8.97727 92.1884 9.97348 92.8324 11.3068C93.4763 12.6326 93.7983 14.2955 93.7983 16.2955C93.7983 18.2424 93.4839 19.8864 92.8551 21.2273C92.2339 22.5606 91.3854 23.572 90.3097 24.2614C89.2415 24.9432 88.0445 25.2841 86.7188 25.2841C85.7794 25.2841 84.9801 25.1288 84.321 24.8182C83.6695 24.5076 83.1354 24.1174 82.7188 23.6477C82.3021 23.1705 81.9839 22.6894 81.7642 22.2045H81.6165V31.5455H76.7756ZM81.5142 16.2727C81.5142 17.3106 81.6581 18.2159 81.946 18.9886C82.2339 19.7614 82.6506 20.3636 83.196 20.7955C83.7415 21.2197 84.4044 21.4318 85.1847 21.4318C85.9725 21.4318 86.6392 21.2159 87.1847 20.7841C87.7301 20.3447 88.143 19.7386 88.4233 18.9659C88.7112 18.1856 88.8551 17.2879 88.8551 16.2727C88.8551 15.2652 88.715 14.3788 88.4347 13.6136C88.1544 12.8485 87.7415 12.25 87.196 11.8182C86.6506 11.3864 85.9801 11.1705 85.1847 11.1705C84.3968 11.1705 83.7301 11.3788 83.1847 11.7955C82.6468 12.2121 82.2339 12.803 81.946 13.5682C81.6581 14.3333 81.5142 15.2348 81.5142 16.2727ZM99.8551 25.2955C99.1051 25.2955 98.4612 25.0303 97.9233 24.5C97.393 23.9621 97.1278 23.3182 97.1278 22.5682C97.1278 21.8258 97.393 21.1894 97.9233 20.6591C98.4612 20.1288 99.1051 19.8636 99.8551 19.8636C100.582 19.8636 101.219 20.1288 101.764 20.6591C102.31 21.1894 102.582 21.8258 102.582 22.5682C102.582 23.0682 102.454 23.5265 102.196 23.9432C101.946 24.3523 101.616 24.6818 101.207 24.9318C100.798 25.1742 100.348 25.2955 99.8551 25.2955Z" fill="white"/>
</svg>
